<?xml version="1.0" encoding="utf-8"?>
<!-- Generator: Adobe Illustrator 18.1.1, SVG Export Plug-In . SVG Version: 6.00 Build 0)  -->
<!DOCTYPE svg PUBLIC "-//W3C//DTD SVG 1.1//EN" "http://www.w3.org/Graphics/SVG/1.1/DTD/svg11.dtd">
<svg version="1.1" id="Layer_1" xmlns="http://www.w3.org/2000/svg" xmlns:xlink="http://www.w3.org/1999/xlink" x="0px" y="0px"
	 width="51px" height="42px" viewBox="-454 302 51 42" enable-background="new -454 302 51 42" xml:space="preserve">
<g>
	<path d="M-407,321v11h-3h-4v4l-1.8-2.4l-1.2-1.6h-2h-5v-11H-407L-407,321 M-407,317h-17c-2.2,0-4,1.8-4,4v11c0,2.2,1.8,4,4,4h5l6,8
		h3v-8h3c2.2,0,4-1.8,4-4v-11C-403,318.8-404.8,317-407,317L-407,317z"/>
</g>
<g>
	<path fill="#FFFFFF" d="M-444,338v-11h-6c-1.1,0-2-0.9-2-2v-19c0-1.1,0.9-2,2-2h29c1.1,0,2,0.9,2,2v19c0,1.1-0.9,2-2,2h-14.1l-7,11
		H-444z"/>
	<path d="M-421,306v19h-13h-2.2l-1.2,1.9l-4.6,7.3V329v-4h-4h-4v-19H-421L-421,306 M-421,302h-29c-2.2,0-4,1.8-4,4v19
		c0,2.2,1.8,4,4,4h4v11h5l7-11h13c2.2,0,4-1.8,4-4v-19C-417,303.8-418.8,302-421,302L-421,302z"/>
</g>
<path fill="#F4A330" d="M-437,309h3v4h4v3h-4v6h-3v-6h-4v-3h4V309z"/>
</svg>
