<?xml version="1.0" encoding="utf-8"?>
<!-- Generator: Adobe Illustrator 18.1.1, SVG Export Plug-In . SVG Version: 6.00 Build 0)  -->
<!DOCTYPE svg PUBLIC "-//W3C//DTD SVG 1.1//EN" "http://www.w3.org/Graphics/SVG/1.1/DTD/svg11.dtd">
<svg version="1.1" id="Layer_1" xmlns="http://www.w3.org/2000/svg" xmlns:xlink="http://www.w3.org/1999/xlink" x="0px" y="0px"
	 width="32px" height="42px" viewBox="-432 302 32 42" enable-background="new -432 302 32 42" xml:space="preserve">
<g>
	<path d="M-416,307c5.9,0,10.8,4.8,10.8,10.8c0,4.8-6.8,15.2-10.8,19.8c-4-4.6-10.8-15-10.8-19.8C-426.8,311.8-421.9,307-416,307
		 M-416,302c-8.7,0-15.8,7.1-15.8,15.8c0,8.7,13.4,26.3,15.8,26.3s15.8-17.6,15.8-26.3C-400.2,309.1-407.3,302-416,302L-416,302z"/>
</g>
<path fill-rule="evenodd" clip-rule="evenodd" fill="#F4A330" d="M-416,311c3.9,0,7,3.1,7,7s-3.1,7-7,7s-7-3.1-7-7
	S-419.9,311-416,311z"/>
</svg>
