<?xml version="1.0" encoding="utf-8"?>
<!-- Generator: Adobe Illustrator 18.1.1, SVG Export Plug-In . SVG Version: 6.00 Build 0)  -->
<!DOCTYPE svg PUBLIC "-//W3C//DTD SVG 1.1//EN" "http://www.w3.org/Graphics/SVG/1.1/DTD/svg11.dtd">
<svg version="1.1" id="Layer_1" xmlns="http://www.w3.org/2000/svg" xmlns:xlink="http://www.w3.org/1999/xlink" x="0px" y="0px"
	 width="94px" height="42px" viewBox="0 0 94 42" enable-background="new 0 0 94 42" xml:space="preserve">
<path fill-rule="evenodd" clip-rule="evenodd" fill="#F4A330" d="M46.7,11l-1,3.9l4.1,0.1l3.6,2l1-3.9L50.3,13L46.7,11z"/>
<g>
	<path d="M15,7c2.8,0,5,2.2,5,5v6c0,2.8-2.2,5-5,5H9c-2.8,0-5-2.2-5-5v-6c0-2.8,2.2-5,5-5H15 M15,3H9c-5,0-9,4-9,9v6c0,5,4,9,9,9h6
		c5,0,9-4,9-9v-6C24,7,20,3,15,3L15,3z"/>
</g>
<path fill-rule="evenodd" clip-rule="evenodd" d="M7,16h10C17,22,7,22,7,16z"/>
<path fill-rule="evenodd" clip-rule="evenodd" d="M19,0.6l2.7,1.3L20,5.4l-2.7-1.3L19,0.6z"/>
<path fill-rule="evenodd" clip-rule="evenodd" d="M14,1h3v4h-3V1z"/>
<g>
	<path d="M81,7c2.8,0,5,2.2,5,5v6c0,2.8-2.2,5-5,5h-6c-2.8,0-5-2.2-5-5v-6c0-2.8,2.2-5,5-5H81 M81,3h-6c-5,0-9,4-9,9v6c0,5,4,9,9,9
		h6c5,0,9-4,9-9v-6C90,7,86,3,81,3L81,3z"/>
</g>
<path fill-rule="evenodd" clip-rule="evenodd" d="M73,16h10C83,22,73,22,73,16z"/>
<path fill-rule="evenodd" clip-rule="evenodd" d="M85,0.6l2.7,1.3L86,5.4l-2.7-1.3L85,0.6z"/>
<path fill-rule="evenodd" clip-rule="evenodd" d="M80,1h3v4h-3V1z"/>
<g>
	<path d="M48,18c2.8,0,5,2.2,5,5v6c0,2.8-2.2,5-5,5h-6c-2.8,0-5-2.2-5-5v-6c0-2.8,2.2-5,5-5H48 M48,14h-6c-5,0-9,4-9,9v6
		c0,5,4,9,9,9h6c5,0,9-4,9-9v-6C57,18,53,14,48,14L48,14z"/>
</g>
<path fill-rule="evenodd" clip-rule="evenodd" d="M40,27h10C50,33,40,33,40,27z"/>
<path fill-rule="evenodd" clip-rule="evenodd" d="M46,15c0,0,0,6,10,9l-2,3c0,0-9-2-11-10L46,15z"/>
<path fill-rule="evenodd" clip-rule="evenodd" d="M59.8,42c0,0,1.2-10-3.8-16l-2,3c0,0,3,3,2.2,13H59.8z"/>
<path fill-rule="evenodd" clip-rule="evenodd" d="M30.1,42c0,0-1.2-10,3.8-16l2,3c0,0-3,3-2.2,13H30.1z"/>
</svg>
